<svg viewBox="0 0 200 200" fill="none" xmlns="http://www.w3.org/2000/svg">
    <defs>
        <linearGradient id="bgGrad" x1="0" y1="0" x2="200" y2="200" gradientUnits="userSpaceOnUse">
            <stop offset="0%" stop-color="#0a0e1a"/>
            <stop offset="100%" stop-color="#111827"/>
        </linearGradient>
        <linearGradient id="circuitGrad" x1="0" y1="0" x2="200" y2="200" gradientUnits="userSpaceOnUse">
            <stop offset="0%" stop-color="#6366f1"/>
            <stop offset="50%" stop-color="#3b82f6"/>
            <stop offset="100%" stop-color="#06b6d4"/>
        </linearGradient>
        <linearGradient id="glowGrad" x1="60" y1="60" x2="140" y2="140" gradientUnits="userSpaceOnUse">
            <stop offset="0%" stop-color="#818cf8" stop-opacity="0.3"/>
            <stop offset="100%" stop-color="#06b6d4" stop-opacity="0.1"/>
        </linearGradient>
    </defs>
    <circle cx="100" cy="100" r="96" fill="url(#bgGrad)"/>
    <circle cx="100" cy="100" r="95" stroke="#1e293b" stroke-width="2" fill="none"/>
    <circle cx="100" cy="100" r="90" stroke="url(#circuitGrad)" stroke-width="1.5" fill="none" opacity="0.5"/>
    <circle cx="100" cy="100" r="70" fill="url(#glowGrad)"/>
    <g stroke="url(#circuitGrad)" stroke-width="1.2" opacity="0.4">
        <line x1="20" y1="55" x2="55" y2="55"/>
        <line x1="145" y1="55" x2="180" y2="55"/>
        <line x1="20" y1="145" x2="55" y2="145"/>
        <line x1="145" y1="145" x2="180" y2="145"/>
        <line x1="55" y1="20" x2="55" y2="55"/>
        <line x1="145" y1="20" x2="145" y2="55"/>
        <line x1="55" y1="145" x2="55" y2="180"/>
        <line x1="145" y1="145" x2="145" y2="180"/>
        <line x1="35" y1="35" x2="55" y2="55"/>
        <line x1="165" y1="35" x2="145" y2="55"/>
        <line x1="35" y1="165" x2="55" y2="145"/>
        <line x1="165" y1="165" x2="145" y2="145"/>
    </g>
    <g fill="url(#circuitGrad)" opacity="0.6">
        <circle cx="55" cy="55" r="3"/>
        <circle cx="145" cy="55" r="3"/>
        <circle cx="55" cy="145" r="3"/>
        <circle cx="145" cy="145" r="3"/>
        <circle cx="100" cy="35" r="2"/>
        <circle cx="100" cy="165" r="2"/>
        <circle cx="35" cy="100" r="2"/>
        <circle cx="165" cy="100" r="2"/>
    </g>
    <circle cx="55" cy="55" r="1.5" fill="#818cf8" opacity="0.8"/>
    <circle cx="145" cy="55" r="1.5" fill="#3b82f6" opacity="0.8"/>
    <circle cx="55" cy="145" r="1.5" fill="#3b82f6" opacity="0.8"/>
    <circle cx="145" cy="145" r="1.5" fill="#06b6d4" opacity="0.8"/>
    <text x="100" y="108" text-anchor="middle" fill="white" font-family="-apple-system, 'Segoe UI', sans-serif" font-size="42" font-weight="800" letter-spacing="6">LADX</text>
    <text x="100" y="130" text-anchor="middle" fill="#94a3b8" font-family="-apple-system, 'Segoe UI', sans-serif" font-size="11" font-weight="500" letter-spacing="4">BUILT FOR PLC</text>
</svg>
